<?xml version="1.0" encoding="UTF-8"?>
<svg id="Layer_1" data-name="Layer 1" xmlns="http://www.w3.org/2000/svg" viewBox="0 0 512 512">
  <defs>
    <style>
      .cls-1 {
        fill: #a61a24;
      }

      .cls-2 {
        fill: #f3e2dc;
      }
    </style>
  </defs>
  <rect class="cls-2" width="512" height="512" rx="51" ry="51"/>
  <g id="Layer_15" data-name="Layer 15">
    <g>
      <path class="cls-1" d="M292.84,148.64c-43.7-15.92-117.74,3.68-138.64,48.41-10.12,21.65-9.29,37.43-8.49,52.7.47,9.03.92,17.57-.72,27.61-.6,3.63-6.37,10.78-11.01,16.52-8.68,10.74-16.17,20.01-12.45,28.24,3.46,7.62,12.68,9.48,18.78,10.71,1.57.31,3.71.74,4.33,1.04,7.59,4,7.66,5.74,7.13,8.7-1.44,7.9-2.53,32.86,10.89,43.47,7.45,5.9,16.61,5.54,24.69,5.24,4.2-.15,8.16-.31,11.39.4,21.96,4.84,15.44,38.3,15.37,38.7-.56,3.23,1.61,6.31,4.85,6.87,3.25.6,6.31-1.6,6.87-4.83.36-2.08,8.5-45.08-24.53-52.35-4.72-1.04-9.64-.85-14.4-.67-6.61.24-12.85.5-16.86-2.68-6.98-5.52-8.31-22.43-6.57-32.02,2.38-13.09-7.81-18.46-13.28-21.34-2.04-1.07-4.58-1.59-7.52-2.18-3.27-.66-9.36-1.88-10.19-3.58-.1-2.8,6.69-11.21,10.76-16.23,6.38-7.89,12.4-15.34,13.5-22.09,1.84-11.31,1.34-20.89.86-30.15-.76-14.44-1.47-28.08,7.39-47.04,17.98-38.45,84.98-56.41,123.8-42.27,52.58,19.17,81.02,61.02,78.02,114.83-1.63,29.23-27.42,66.01-42.83,87.99-7.59,10.83-11.3,16.2-12.48,19.93-6.21,19.63-2.55,48.02-2.39,49.47.33,3.05,2.91,5.3,5.9,5.3.22,0,.44-.01.65-.03,3.26-.35,5.62-3.29,5.27-6.56-.04-.33-3.54-27.35,1.91-44.59.69-2.15,6.1-9.88,10.88-16.69,16.14-23.01,43.15-61.53,44.97-94.16,3.31-59.41-27.97-105.58-85.82-126.66Z"/>
      <path class="cls-1" d="M256,122.8c3.28,0,5.95-2.66,5.95-5.95v-36.24c0-3.28-2.66-5.95-5.95-5.95s-5.95,2.66-5.95,5.95v36.24c0,3.28,2.66,5.95,5.95,5.95Z"/>
      <path class="cls-1" d="M302.4,132.22c.87.45,1.81.67,2.73.67,2.15,0,4.22-1.17,5.28-3.21l16.72-32.22c1.51-2.91.37-6.5-2.54-8.02-2.91-1.51-6.5-.38-8.02,2.54l-16.72,32.22c-1.51,2.91-.37,6.5,2.54,8.01Z"/>
      <path class="cls-1" d="M346.69,155.97c1.3,0,2.6-.42,3.7-1.29l29.06-23.07c2.57-2.04,3-5.78.96-8.35-2.04-2.57-5.79-3-8.35-.96l-29.06,23.07c-2.57,2.04-3,5.78-.96,8.35,1.17,1.48,2.91,2.25,4.66,2.25Z"/>
      <path class="cls-1" d="M413.09,175.51c-.97-3.14-4.31-4.9-7.43-3.94l-35.94,11.05c-3.14.97-4.9,4.29-3.94,7.43.79,2.55,3.14,4.2,5.68,4.2.58,0,1.17-.09,1.75-.26l35.94-11.05c3.14-.97,4.9-4.29,3.94-7.43Z"/>
      <path class="cls-1" d="M201.59,129.69c1.06,2.04,3.14,3.21,5.28,3.21.92,0,1.86-.21,2.73-.67,2.91-1.52,4.05-5.1,2.54-8.02l-16.73-32.22c-1.52-2.91-5.1-4.04-8.02-2.54-2.91,1.52-4.05,5.1-2.54,8.02l16.73,32.22Z"/>
      <path class="cls-1" d="M161.62,154.68c1.09.87,2.39,1.29,3.69,1.29,1.75,0,3.49-.77,4.66-2.25,2.04-2.57,1.61-6.31-.96-8.35l-29.06-23.07c-2.57-2.04-6.31-1.62-8.35.96-2.04,2.57-1.61,6.31.96,8.35l29.06,23.07Z"/>
      <path class="cls-1" d="M140.54,194.26c2.54,0,4.89-1.65,5.68-4.2.96-3.14-.8-6.47-3.94-7.43l-35.94-11.05c-3.14-.96-6.47.8-7.43,3.94-.96,3.14.8,6.47,3.94,7.43l35.94,11.05c.58.18,1.17.26,1.75.26Z"/>
      <path class="cls-1" d="M333.72,268.72c4.78-1.89,8.85-5.32,11.77-10.1,5.72-9.38,5.33-21.44-.93-29.32-5.23-6.58-11.4-8.01-17.06-7.97.49-6.59-2.08-12.75-7.33-16.89-4.05-3.18-8.99-4.61-13.8-4.27-1.15-6.53-5.25-12.58-12.26-18.01-6.81-5.28-14.44-4.7-20.01-4.28-2.05.16-4.17.31-5.2.06-.67-.17-2.46-1.23-3.77-2.01-5.47-3.26-14.63-8.71-25.53-3.68-6.72,3.11-10.69,7.91-12.91,13.03-14.86-3.02-24.94,5.24-29.32,14.14-1.81,3.68-2.71,7.52-2.94,11.25-10.97.81-20.3,8.68-23,19.82-2.67,11.04,2.17,21.56,12.34,26.81,9.94,5.13,17.97,1.56,24.41-1.3,4.91-2.18,8.08-3.47,11.56-2.46,6.57,1.89,8.9,6.71,11.6,12.28,2.66,5.49,5.97,12.32,14.13,14.09,8.87,1.92,15.73-2.04,20.73-4.92,3.77-2.17,6.17-3.52,8.26-3.01,4.57,1.03,7.56,4.85,11.03,9.26,4.55,5.78,10.2,12.98,20.68,13.01h.1c8.29,0,15.25-2.57,20.13-7.43,4.51-4.49,7.02-10.9,7.32-18.09ZM319.05,269.86c.91.18,1.79.18,2.69.27-.46,3.38-1.72,6.26-3.73,8.27-2.64,2.63-6.58,3.96-11.73,3.96h-.08c-4.5-.01-7.12-3.07-11.36-8.47-.41-.52-.84-1.06-1.27-1.6.12-.66.18-1.33.06-2.02-.32-1.86,1.18-4.72,3.63-6.96,2.61-2.39,5.18-3.11,6.18-2.83,3.2.84,6.43-1.05,7.27-4.23.84-3.17-1.05-6.43-4.23-7.27-5.43-1.44-11.88.64-17.25,5.55-2.71,2.48-4.73,5.31-6,8.25-1.83-1.03-3.86-1.88-6.15-2.4-1.39-.31-2.7-.39-3.98-.36.09-3.17-.34-6.3-1.24-9.23.27-.17.58-.28.83-.51,6.48-5.83,12.2-7.27,19.75-4.95,3.12.96,6.46-.79,7.43-3.93.97-3.14-.8-6.47-3.93-7.43-4.5-1.38-8.74-1.86-12.8-1.44-2.26-4.91-2.45-12.03-.17-16.6,1.46-2.94.27-6.51-2.67-7.97-2.96-1.47-6.51-.27-7.97,2.67-3.68,7.39-3.66,17.59-.46,25.6-2.09,1.19-4.14,2.7-6.19,4.45-4.25-4.04-9.9-6.14-16.51-5.84-3.28.16-5.81,2.95-5.65,6.23.16,3.28,2.95,5.73,6.23,5.65,4.01-.21,7.12,1.15,9.11,4,2.49,3.58,2.94,9.08,1.42,13.95,0,0-.02,0-.02.01-4.23,2.43-7.88,4.55-12.26,3.59-2.27-.49-3.5-2.6-5.94-7.65-2.47-5.11-5.75-11.68-12.87-15.85,2.29-3.22,3.65-6.74,4.16-10.36,4.76-1.47,12.95-4.66,19.41-10.83,10.16-9.71,8.87-22.76,8.81-23.31-.35-3.24-3.21-5.59-6.5-5.24-3.25.32-5.62,3.23-5.33,6.48.03.32.64,7.9-5.2,13.48-4.03,3.85-9.24,6.18-12.93,7.48-1.22-2.69-3.07-5.55-5.95-8.46-2.3-2.33-6.07-2.35-8.41-.04-2.33,2.31-2.35,6.08-.04,8.41,3.09,3.12,4.64,6.26,4.59,9.31-.07,3.99-2.81,7.17-4.44,8.72-.29.27-.43.62-.66.93-5.09.16-9.54,2.11-13.32,3.79-6.08,2.71-9.48,4-14.13,1.61-7.61-3.92-6.89-10.71-6.23-13.44,1.27-5.24,5.97-10.88,13.27-10.89.06,0,.11-.03.18-.04,1.54,3.37,3.84,6.26,6.96,8.17.97.6,2.04.88,3.1.88,2,0,3.95-1.01,5.07-2.84,1.72-2.8.84-6.46-1.96-8.17-3.88-2.38-4.6-9.58-1.58-15.72,1.58-3.21,6.16-9.72,16.23-7.74-.05,3.07.3,5.86.84,7.99.8,3.17,4.02,5.08,7.18,4.29,3.17-.78,5.12-4,4.35-7.18-.34-1.41-3-13.94,7.95-19,4.84-2.24,8.86-.23,14.45,3.1,2.38,1.42,4.63,2.75,7.03,3.34,2.88.7,5.95.47,8.93.24,4.43-.33,8.62-.66,11.82,1.82,4.99,3.86,7.68,7.77,7.99,11.6.28,3.47-1.39,7.16-4.95,10.98-2.24,2.4-2.12,6.16.28,8.4,1.15,1.07,2.6,1.6,4.06,1.6,1.59,0,3.17-.63,4.34-1.89,2.86-3.06,4.97-6.28,6.34-9.57,2.82-1.26,5.92-.49,7.93,1.09,1.62,1.28,4.08,4.2,2.28,9.44-1.18,3.47-4.82,6.86-6.11,7.86-2.61,1.99-3.11,5.72-1.11,8.33,1.17,1.53,2.94,2.34,4.73,2.34,1.26,0,2.53-.4,3.6-1.22.52-.4,3.77-2.99,6.63-6.92,6.05-.8,9.31-.82,12.42,3.09,3.17,3.99,3.21,10.61.09,15.73-1.73,2.84-5.83,7.37-13.99,5.76-3.2-.64-6.35,1.45-6.98,4.68-.64,3.22,1.46,6.35,4.68,6.99Z"/>
    </g>
  </g>
</svg>