<?xml version="1.0" encoding="UTF-8"?>
<svg id="Layer_1" data-name="Layer 1" xmlns="http://www.w3.org/2000/svg" viewBox="0 0 512 512">
  <defs>
    <style>
      .cls-1 {
        fill: #a61a24;
      }

      .cls-2 {
        fill: #f3e2dc;
      }
    </style>
  </defs>
  <rect class="cls-2" width="512" height="512" rx="51" ry="51"/>
  <g>
    <path class="cls-1" d="M155.06,191.15c9.44-15.91.73-38.65-19.48-50.62-9.5-5.62-19.84-7.86-29.09-7.08-2.3-3.21-3.69-6.17-4.11-8.77-.24-1.45-.91-5.99,6.23-13.37,4.72-4.9,9.8-6.83,16.69-6.59,3.33.24,6.17-2.48,6.29-5.81s-2.48-6.17-5.81-6.29c-10.4-.48-18.81,2.96-25.89,10.28-11.31,11.67-9.92,20.69-9.5,23.59.48,3.27,1.75,6.65,3.75,10.1-2.36,1.09-4.54,2.54-6.53,4.17-.18.12-.36.3-.54.48-.73.6-1.39,1.27-2,2-.3.3-.54.6-.85.91-.48.6-.97,1.27-1.45,1.87-.18.24-.42.48-.6.79-3.81-5.93-6.17-11.92-7.08-17.9-1.39-8.83-.18-22.5,13.67-36.77,10.04-10.4,23.1-15.54,37.62-15,36.17,1.45,77.48,37.62,98.89,59.09,6.77,6.83,16.69,10.04,27.22,8.83,2.42-.3,4.9-.3,7.32,0,10.52,1.21,20.44-2,27.22-8.83,18.45-18.45,46.27-42.76,74.33-53.53,3.08-1.21,4.66-4.72,3.45-7.8-1.21-3.15-4.72-4.66-7.8-3.45-21.41,8.23-42.28,23.53-59.58,38.59-12.46-7.62-26.61-11.67-41.31-11.67s-28.79,4.05-41.25,11.61c-25.77-22.5-57.7-43.67-88-44.88-18.14-.73-34.29,5.75-46.81,18.63-17.3,17.84-18.69,35.5-16.87,47.12,1.63,10.46,6.65,20.69,14.82,30.48-.24,13.49,8.41,28.06,23.29,36.96,8.04,4.78,17,7.32,25.52,7.32,1.51,0,3.08-.06,4.6-.24,10.46-1.15,18.87-6.17,23.65-14.21ZM256.12,110.47c11.19,0,22.08,2.78,31.87,8.1-3.39,3.15-6.59,6.23-9.5,9.19-4.23,4.23-10.4,6.17-17.3,5.38-3.33-.36-6.77-.36-10.1,0-6.96.79-13.06-1.15-17.3-5.38-3.02-3.02-6.17-6.11-9.5-9.19,9.74-5.32,20.62-8.1,31.81-8.1ZM107.46,187.89c-11.61-6.9-18.21-18.02-17.3-27.46,0-.12.06-.24.06-.3.12-1.21.36-2.24.6-3.21.3-.97.67-1.94,1.15-2.78.06-.06.06-.18.12-.24.79-1.27,1.75-2.42,2.84-3.45.85-.73,1.69-1.33,2.6-1.81.24-.12.42-.3.67-.42,2.24-1.21,4.6-1.87,6.65-2.24.24-.06.42-.12.67-.24,1.39-.24,2.84-.42,4.29-.42,6.17,0,13.06,1.87,19.48,5.69,14.46,8.59,21.35,23.89,15.3,34.05-2.78,4.66-7.92,7.62-14.64,8.35-7.2.79-15.24-1.15-22.5-5.5Z"/>
    <path class="cls-1" d="M385.38,65.11c-3.33.12-5.93,2.96-5.81,6.29s2.9,5.93,6.29,5.81c14.52-.6,27.58,4.6,37.62,15,13.79,14.27,15,27.88,13.61,36.83-.97,5.99-3.33,11.98-7.08,17.9-.18-.24-.36-.48-.54-.73-.48-.67-.97-1.33-1.45-1.94-.24-.3-.54-.6-.79-.85-.67-.73-1.33-1.33-2-2-.18-.18-.36-.3-.54-.48-1.94-1.63-4.11-3.08-6.53-4.17,2-3.45,3.21-6.83,3.75-10.1.48-2.96,1.81-11.92-9.5-23.65-7.08-7.32-15.54-10.71-25.89-10.28-30.54,1.21-68.65,34.84-88.61,54.74-6.83,6.83-10.1,16.63-9.01,27.04.12,1.15.18,2.3.18,3.51,0,11.73-6.05,33.87-17.18,51.71-11.43,18.27-12.4,41.19-2.66,61.27.97,1.94,1.45,4.05,1.45,6.29,0,4.23-2.06,8.53-5.5,11.43-3.39,2.84-6.41,5.99-9.13,9.44-2.66-3.45-5.75-6.59-9.13-9.44-3.45-2.9-5.5-7.2-5.5-11.43,0-2.24.48-4.35,1.45-6.29,9.8-20.08,8.83-43-2.66-61.27-11.13-17.84-17.18-39.98-17.18-51.71,0-1.21.06-2.36.18-3.51,1.09-10.34-2.18-20.2-9.01-27.04-16.57-16.51-41.37-38.41-65.38-48.81-3.08-1.33-6.65.06-7.92,3.15-1.33,3.08.06,6.65,3.15,7.98,14.76,6.41,30.24,17.96,42.94,28.91-6.83,11.98-10.46,25.46-10.46,39.31,0,22.8,9.5,52.8,24.25,76.39,2.9,4.6,2.96,10.71.3,16.21-4.11,8.35-6.17,17.36-6.17,26.73,0,3.33,2.72,6.05,6.05,6.05s6.05-2.72,6.05-6.05c0-7.56,1.63-14.76,4.96-21.47,4.54-9.31,4.23-19.78-.91-27.94-13.43-21.47-22.38-49.54-22.38-69.98,0-10.89,2.66-21.47,7.62-31.03,3.57,3.33,6.83,6.41,9.44,9.07,4.29,4.23,6.23,10.34,5.5,17.18-.18,1.57-.24,3.15-.24,4.78,0,13.37,5.93,37.2,18.99,58.12,9.19,14.76,9.98,33.27,2,49.6-1.75,3.57-2.66,7.5-2.66,11.55,0,7.8,3.63,15.54,9.8,20.75,4.78,3.99,8.65,8.71,11.61,14.03,1.09,1.94,3.08,3.08,5.26,3.08s4.23-1.21,5.26-3.08c2.96-5.32,6.9-10.04,11.61-14.03,6.17-5.2,9.8-12.94,9.8-20.75,0-4.05-.91-7.92-2.66-11.55-7.92-16.33-7.2-34.84,2-49.6,13.06-20.93,18.99-44.76,18.99-58.12,0-1.63-.06-3.21-.24-4.78-.73-6.83,1.21-12.88,5.5-17.18,3.21-3.15,6.35-6.17,9.44-9.07,4.96,9.56,7.62,20.14,7.62,31.03,0,20.38-9.01,48.51-22.44,69.98-5.08,8.17-5.44,18.63-.91,27.94,3.27,6.71,4.96,13.91,4.96,21.47,0,11.61-4.11,22.86-11.67,31.69-10.4,12.22-15.91,26.31-15.91,40.77,0,3.33,2.72,6.05,6.05,6.05s6.05-2.72,6.05-6.05c0-11.55,4.48-22.92,13-32.9,9.37-11.01,14.52-25.04,14.52-39.5,0-9.37-2.06-18.39-6.17-26.73-2.72-5.56-2.6-11.61.3-16.27,14.76-23.59,24.25-53.53,24.25-76.39,0-13.91-3.63-27.4-10.46-39.37,24.44-21.11,46.33-33.21,61.81-33.81,6.96-.24,11.98,1.69,16.69,6.59,7.14,7.38,6.41,11.85,6.23,13.37-.42,2.66-1.81,5.56-4.11,8.77-9.31-.79-19.6,1.45-29.09,7.08-20.2,11.98-28.97,34.72-19.48,50.62,1.69,2.84,5.38,3.81,8.29,2.12,2.84-1.69,3.81-5.44,2.12-8.29-6.05-10.22.79-25.46,15.3-34.05,8.04-4.78,16.69-6.41,23.89-5.26.18.06.36.12.54.18,4.11.79,9.68,2.78,12.76,7.92.54.97.91,2,1.27,3.02.3.97.48,2.06.67,3.27,0,.12.06.24.06.3.91,9.44-5.69,20.56-17.3,27.46-6.77,4.05-14.33,5.99-21.29,5.56-3.33-.24-6.23,2.3-6.41,5.62-.24,3.33,2.3,6.23,5.62,6.41.91.06,1.75.06,2.66.06,8.59,0,17.54-2.54,25.58-7.32,14.88-8.83,23.53-23.47,23.29-36.96,8.17-9.8,13.12-20.08,14.82-30.48,1.81-11.61.36-29.27-16.87-47.12-12.28-12.88-28.55-19.35-46.57-18.63h0Z"/>
    <path class="cls-1" d="M218.75,328.93c-3.02-3.57-5.56-7.56-7.44-11.79-1.33-3.02-4.9-4.42-7.98-3.08-3.02,1.39-4.42,4.96-3.08,7.98,2.36,5.32,5.5,10.22,9.25,14.7,8.53,9.98,13,21.41,13,32.9v65.26c0,3.33,2.72,6.05,6.05,6.05h55.1c3.33,0,6.05-2.72,6.05-6.05v-42.76c0-3.33-2.72-6.05-6.05-6.05s-6.05,2.72-6.05,6.05v36.77h-43v-59.21c.06-14.46-5.44-28.55-15.85-40.77Z"/>
  </g>
</svg>