<?xml version="1.0" encoding="UTF-8"?>
<svg id="Layer_1" data-name="Layer 1" xmlns="http://www.w3.org/2000/svg" viewBox="0 0 512 512">
  <defs>
    <style>
      .cls-1 {
        fill: #a61a24;
      }

      .cls-2 {
        fill: #f3e2dc;
      }
    </style>
  </defs>
  <rect class="cls-2" width="512" height="512" rx="51" ry="51"/>
  <path class="cls-1" d="M375.37,374.48c-3.31-12.08-9.89-22.95-19.01-31.42-5.05-4.69-10.85-8.65-17.33-11.87.79-4.11.44-8.4-1.11-12.42-2.45-6.36-7.56-11.24-14.04-13.37-.19-.06-.39-.1-.57-.16-2.46-22.46-14.99-43.27-34.96-55.97-14.26-9.07-24.59-18.88-31.82-30.3l7.39,1.63c7.81,1.72,15.87-.55,21.56-6.06,10.36-10.05,15.9-22.09,16.93-36.79l4.53-1.76c2.97-1.15,5.21-3.55,6.15-6.6.94-3.04.46-6.29-1.32-8.92l-4.5-6.63c-3.35-4.94-4.78-10.92-4.02-16.85l1.8-13.96c1.74-13.56-2.17-27.21-10.74-37.79-.32-.54-.73-1.03-1.2-1.45-.03-.03-.05-.07-.08-.1-9.48-10.76-23.13-16.94-37.48-16.94h-34.98c-20.72,0-38.98,12.48-46.5,31.79-2.18,5.59-3.58,11.41-4.24,17.28-19.91,1.3-35.72,17.9-35.72,38.13s17.14,38.22,38.22,38.22c7.05,0,13.65-1.93,19.33-5.27l-.16,1.16c-2.56,18.32-4.07,36.97-4.48,55.46-2.49,4.34-3.92,9.36-3.92,14.71v58.01c0,23.99,6.92,47.04,19.8,66.75-.31,16.93-6.13,33.66-17.16,47.27l-4.29,5.3c-2.06,2.55-1.67,6.29.88,8.35,1.1.89,2.42,1.32,3.73,1.32,1.73,0,3.44-.75,4.62-2.2l4.29-5.3c9.73-12.02,15.93-26.14,18.48-40.85,1.13,1.29,2.29,2.56,3.47,3.81l40.75,42.7c2.26,2.37,6.03,2.46,8.39.2,2.37-2.26,2.46-6.02.2-8.39l-40.75-42.7c-19.69-20.65-30.54-47.73-30.54-76.27v-58.01c0-9.82,7.99-17.81,17.81-17.81s17.81,7.99,17.81,17.81v76.1c0,15.93,5.51,31.53,15.52,43.93l52.31,64.79c1.17,1.45,2.89,2.21,4.62,2.21,1.31,0,2.63-.43,3.73-1.32,2.55-2.06,2.95-5.8.89-8.35l-52.31-64.79c-8.31-10.29-12.88-23.24-12.88-36.47v-76.1c0-1.52-.12-3.01-.33-4.48,11.17,4.26,22.26,6.37,33.51,6.37,2.37,0,4.76-.1,7.15-.28,15.94,10.47,26.1,27.11,28.53,45.16-4.66,1.17-8.96,3.78-12.1,7.65l-4.37,5.38c-4.76,5.86-6.28,13.67-4.07,20.89,2.21,7.22,7.84,12.84,15.06,15.04l1.11.34c2.21.68,4.45.99,6.66.99,7.96,0,15.47-4.21,19.59-11.45l1-1.76c15.09,7.67,25.4,19.86,29.7,35.56,5.6,20.43-.53,44-14.9,57.32-2.4,2.23-2.55,5.99-.32,8.39,1.17,1.26,2.76,1.9,4.36,1.9,1.45,0,2.89-.53,4.04-1.58,17.76-16.48,25.11-44.28,18.29-69.19h0ZM185.14,102.85c5.74-14.72,19.64-24.22,35.44-24.22h34.98c10.08,0,19.71,4.01,26.81,11.07-4.36,9.9-13.9,15.51-25.63,14.8-5.61-.33-10.74,3.33-12.2,8.73-2.23,8.23-6.69,16.06-13.62,23.93-7.63-5.38-14.33-3.8-18.61-1.51-7.15,3.81-11.3,11.71-10.59,20.11.36,4.3,1.33,7.61,2.94,10.1-1.2,1.49-2.86,2.7-5.1,3.75l-9.91-16.19c-9.26-15.13-10.95-34.03-4.5-50.56h0ZM145.99,153.95c0-13.58,10.33-24.79,23.55-26.2.68,11.16,4.04,22.15,9.97,31.85l9.17,14.98c-4.5,3.57-10.17,5.71-16.34,5.71-14.52,0-26.35-11.82-26.35-26.35ZM199.31,231.78c.68-14.07,2-28.17,3.94-42.08l.33-2.38c.3-2.17.32-4.37.07-6.53,3.01-1.29,6.29-3.2,9.1-6.18,4.42,3.24,9.67,5.12,15.84,5.66.18.01.36.02.53.02,3.04,0,5.63-2.33,5.91-5.42.29-3.27-2.13-6.14-5.4-6.43-6.4-.56-10.85-3.09-14.38-8.16-.19-.28-.38-.55-.59-.82-.03-.04-.81-1.04-1.12-4.71-.31-3.67,1.4-7.05,4.35-8.63,1.77-.94,3.5-1.17,6.23.77,4.92,3.5,11.67,2.7,15.69-1.86,8.19-9.28,13.48-18.68,16.23-28.69,14.28.85,26.65-5.18,33.92-15.91,3.06,6.5,4.27,13.8,3.33,21.06l-1.8,13.96c-1.14,8.8.99,17.69,5.97,25.03l3.45,5.09-3.27,1.27c-4.01,1.56-6.77,5.36-7.05,9.69-.76,11.83-5.13,21.46-13.37,29.46-2.82,2.73-6.84,3.85-10.74,2.99l-28.67-6.31c-3.2-.71-6.37,1.32-7.07,4.52s1.32,6.37,4.52,7.07l5.88,1.29c5.71,12.09,13.82,22.55,24.92,32.03-10.82-1.35-21.61-4.97-32.62-10.95-.16-.09-.33-.17-.5-.24-5.31-4.87-12.39-7.87-20.15-7.87-4.85,0-9.43,1.17-13.47,3.24h0ZM326.15,332.23l-3.26,5.71c-2.51,4.4-7.64,6.44-12.48,4.97l-1.11-.34c-3.49-1.06-6.09-3.67-7.16-7.15s-.36-7.1,1.94-9.93l4.37-5.38c2.07-2.55,5.19-3.97,8.39-3.97,1.12,0,2.24.17,3.34.53,3.08,1.02,5.51,3.33,6.67,6.35,1.17,3.03.91,6.38-.69,9.19h0Z"/>
</svg>