<?xml version="1.0" encoding="UTF-8"?>
<svg id="Layer_1" data-name="Layer 1" xmlns="http://www.w3.org/2000/svg" viewBox="0 0 512 512">
  <defs>
    <style>
      .cls-1 {
        fill: none;
        stroke: #a61a24;
        stroke-linecap: round;
        stroke-linejoin: round;
        stroke-width: 15px;
      }

      .cls-2 {
        fill: #f3e2dc;
      }
    </style>
  </defs>
  <rect class="cls-2" width="512" height="512" rx="51" ry="51"/>
  <g>
    <g>
      <path class="cls-1" d="M220.94,189.66c0-5.58-4.52-10.1-10.1-10.1s-10.1,4.52-10.1,10.1"/>
      <path class="cls-1" d="M291.06,189.66c0-5.58,4.52-10.1,10.1-10.1s10.1,4.52,10.1,10.1"/>
      <path class="cls-1" d="M245.28,201.47c2.61,2.99,6.44,4.88,10.72,4.88s8.11-1.89,10.72-4.88"/>
    </g>
    <g>
      <path class="cls-1" d="M283.16,80.51c5.1,4.35,8.33,10.81,8.33,18.04,0,13.09-10.61,23.69-23.69,23.69-6.65,0-12.65-2.74-16.96-7.15"/>
      <path class="cls-1" d="M156.96,228.14c-2.76.76-5.67,1.16-8.68,1.16-18.09,0-32.75-14.66-32.75-32.75s14.66-32.75,32.75-32.75c1.54,0,3.06.11,4.54.31"/>
      <path class="cls-1" d="M359.47,164.07c1.39-.18,2.81-.27,4.25-.27,18.09,0,32.75,14.66,32.75,32.75s-14.66,32.75-32.75,32.75c-2.9,0-5.71-.38-8.39-1.09"/>
      <path class="cls-1" d="M345.55,141.26c10.2,14.61,16.1,31.89,16.1,50.41,0,23.26-9.31,44.57-24.76,61.08"/>
      <path class="cls-1" d="M175.33,252.98c-15.58-16.54-24.98-37.94-24.98-61.31,0-52.44,47.3-94.95,105.65-94.95,29.03,0,55.32,10.52,74.41,27.55"/>
      <path class="cls-1" d="M349.76,348.63c1.97-6.64,3.44-13.56,4.35-20.71,2.58-20.25.34-39.84-5.7-57.27-5.68-16.36-22.51-26.22-39.56-23.17-16.84,3.01-34.06,8.58-50.95,16.69"/>
      <path class="cls-1" d="M207.91,412.53c18.03,12.09,39.31,17.9,61.21,15.12,39.29-5,69.73-36.23,80.03-76.99-13.07-22.28-31.51-43.52-54.65-61.44-28.83-22.33-60.72-36.27-91.34-41.74-17.05-3.04-33.89,6.81-39.56,23.17-6.05,17.43-8.28,37.01-5.7,57.27,3.6,28.34,16,53.06,33.52,70.88"/>
    </g>
  </g>
</svg>