<?xml version="1.0" encoding="UTF-8"?>
<svg id="Layer_1" data-name="Layer 1" xmlns="http://www.w3.org/2000/svg" viewBox="0 0 512 512">
  <defs>
    <style>
      .cls-1 {
        fill: none;
        stroke: #a61a24;
        stroke-linecap: round;
        stroke-linejoin: round;
        stroke-width: 15px;
      }

      .cls-2 {
        fill: #f3e2dc;
      }
    </style>
  </defs>
  <rect class="cls-2" x="0" width="512" height="512" rx="51" ry="51"/>
  <g>
    <path class="cls-1" d="M357.67,255.86c16.35,1.56,30.93-10.05,30.83-24.61,0-6.49-2.83-12.4-7.46-16.81"/>
    <path class="cls-1" d="M109.48,214.44c-4.63,4.41-7.46,10.32-7.46,16.81-.1,14.56,14.48,26.16,30.83,24.61"/>
    <path class="cls-1" d="M209.35,328.66c-.23,1.64-.36,3.32-.36,5.03,0,20.03,16.24,36.27,36.27,36.27,11.09,0,21.01-4.98,27.67-12.83"/>
    <path class="cls-1" d="M325.66,304.97c21.8-18.62,35.37-44.73,35.37-73.65,0-6.68-.73-13.22-2.12-19.54"/>
    <path class="cls-1" d="M347.41,415.58c-5.03,2.73-11.05,2.74-16.08.02-28.57-15.39-62.76-49.14-62.8-77.22-.03-21.16,17.09-38.33,38.25-38.36,13.66-.02,25.65,7.12,32.45,17.87,6.77-10.77,18.74-17.94,32.4-17.96,21.16-.03,38.33,17.09,38.36,38.25.04,28.08-34.05,61.93-62.57,77.41Z"/>
    <path class="cls-1" d="M356.09,351.3h-6.58v-6.58c0-3.21-2.6-5.81-5.81-5.81h-8.9c-3.21,0-5.81,2.6-5.81,5.81v6.58h-6.58c-3.21,0-5.81,2.6-5.81,5.81v8.9c0,3.21,2.6,5.81,5.81,5.81h6.58v6.58c0,3.21,2.6,5.81,5.81,5.81h8.9c3.21,0,5.81-2.6,5.81-5.81v-6.58h6.58c3.21,0,5.81-2.6,5.81-5.81v-8.9c0-3.21-2.6-5.81-5.81-5.81Z"/>
    <line class="cls-1" x1="204.64" y1="237.83" x2="204.64" y2="245.63"/>
    <line class="cls-1" x1="285.88" y1="237.83" x2="285.88" y2="245.63"/>
    <path class="cls-1" d="M234.55,245.4c2.6,2.99,6.43,4.88,10.71,4.88s8.1-1.89,10.71-4.88"/>
    <path class="cls-1" d="M324.5,116.93c-22.3-14.19-49.66-22.56-79.23-22.56-74.99,0-135.79,53.76-135.79,120.07,7.73,0,15.01-.62,22.11-2.57,7.95-23.99,33.87-51.23,68.07-52.72-10.36,12.97-13.93,26.69-7.76,34.53,7.96,10.11,29.23,6.78,48.5-7.22-1.15,10.15,1.18,18.46,7.21,22.28,11.38,7.21,31.62-4.32,45.21-25.76,4.73-7.46,8.02-15.14,9.84-22.29,28.31,6.32,49.28,29.99,56.29,51.15,6.93,1.65,14.28,2.6,22.11,2.6,0-32.55-14.65-62.07-38.43-83.69"/>
    <line class="cls-1" x1="210.37" y1="412.87" x2="326.52" y2="412.87"/>
    <path class="cls-1" d="M203.79,326.91c-26.7,12.9-46.47,37.87-52.24,67.83-1.81,9.4,5.39,18.13,14.97,18.13h21.08"/>
    <path class="cls-1" d="M131.61,211.8c-1.38,6.32-2.11,12.84-2.11,19.51,0,56.54,51.83,102.37,115.76,102.37,8.19,0,16.17-.76,23.88-2.18"/>
  </g>
</svg>