<?xml version="1.0" encoding="UTF-8"?>
<svg id="Layer_1" data-name="Layer 1" xmlns="http://www.w3.org/2000/svg" viewBox="0 0 512 512">
  <defs>
    <style>
      .cls-1 {
        fill: #a61a24;
      }

      .cls-2 {
        fill: #f3e2dc;
      }
    </style>
  </defs>
  <rect class="cls-2" width="512" height="512" rx="51" ry="51"/>
  <g id="pediatrics_baby_care_baby" data-name="pediatrics, baby care, baby">
    <g>
      <path class="cls-1" d="M339.58,423.16c3.08,0,5.57-2.5,5.57-5.57v-42.29l37.57-29.44c4.7-3.74,11-11.09,13.46-16.93l26.52-61.66c.3-.69.46-1.45.46-2.21v-53.7c0-6.93-7.86-12.05-15.45-12.97-9.41-1.21-21.23,3.9-25.69,21.7-2.3,9.24-2.81,17.05-3.27,23.94-.21,3.06,2.11,5.95,5.18,6.15,3.08.21,5.72-1.89,5.91-4.96.46-6.89.94-14.16,3-22.44,1.4-5.59,4.41-12.47,10.84-13.33,4.3-.61,7.9,1.69,8.49,2.74l-.17,51.73-26.09,60.66c-1.63,3.89-6.69,9.81-10.12,12.55l-39.67,31.09c-1.35,1.05-2.13,2.66-2.13,4.38v45c0,3.08,2.5,5.57,5.57,5.57Z"/>
      <path class="cls-1" d="M172.42,423.16c-3.08,0-5.57-2.5-5.57-5.57v-42.29l-37.57-29.44c-4.7-3.74-11-11.09-13.46-16.93l-26.52-61.66c-.3-.69-.46-1.45-.46-2.21v-53.7c0-6.93,7.86-12.05,15.45-12.97,9.41-1.21,21.23,3.9,25.69,21.7,2.3,9.24,2.81,17.05,3.27,23.94.21,3.06-2.11,5.95-5.18,6.15-3.08.21-5.72-1.89-5.91-4.96-.46-6.89-.94-14.16-3-22.44-1.4-5.59-4.41-12.47-10.84-13.33-4.3-.61-7.9,1.69-8.49,2.74l.17,51.73,26.09,60.66c1.63,3.89,6.69,9.81,10.12,12.55l39.67,31.09c1.35,1.05,2.13,2.66,2.13,4.38v45c0,3.08-2.5,5.57-5.57,5.57Z"/>
      <path class="cls-1" d="M239.28,423.16c-3.08,0-5.57-2.5-5.57-5.57v-60.88c0-23.48-16.21-43.95-39.44-49.79-2.99-.75-4.79-3.78-4.05-6.76.75-2.98,3.72-4.83,6.76-4.05,28.17,7.09,47.86,32.01,47.86,60.6v60.88c0,3.08-2.5,5.57-5.57,5.57h0Z"/>
      <path class="cls-1" d="M175.34,327.51c-1.43,0-2.85-.55-3.95-1.63l-48.89-48.81c-1.05-1.05-1.63-2.46-1.63-3.95s.59-2.9,1.63-3.95c15.32-15.32,34.21-14.03,51.81,3.57l25.13,25.07c2.17,2.17,2.17,5.71,0,7.88-2.17,2.18-5.71,2.17-7.88.01l-25.13-25.07c-11.42-11.42-22.11-13.84-31.77-7.18l44.6,44.53c2.17,2.17,2.17,5.71,0,7.89-1.07,1.08-2.5,1.63-3.92,1.63Z"/>
      <g>
        <path class="cls-1" d="M272.72,423.16c-3.08,0-5.57-2.5-5.57-5.57v-60.88c0-28.6,19.69-53.51,47.86-60.6,3.02-.78,6.01,1.07,6.76,4.05.74,2.99-1.07,6.02-4.05,6.76-23.22,5.84-39.44,26.31-39.44,49.79v60.88c0,3.08-2.5,5.57-5.57,5.57h0Z"/>
        <path class="cls-1" d="M336.66,327.51c-1.43,0-2.85-.55-3.95-1.63-2.17-2.18-2.17-5.71,0-7.89l44.6-44.53c-9.65-6.65-20.35-4.23-31.77,7.18l-25.13,25.07c-2.17,2.16-5.71,2.17-7.88-.01-2.17-2.17-2.17-5.71,0-7.88l25.13-25.07c17.6-17.6,36.49-18.89,51.81-3.57,1.05,1.05,1.63,2.46,1.63,3.95s-.59,2.9-1.63,3.95l-48.89,48.81c-1.07,1.08-2.5,1.63-3.92,1.63h0Z"/>
      </g>
      <path class="cls-1" d="M336.66,327.51c-1.43,0-2.85-.55-3.95-1.63-2.17-2.18-2.17-5.71,0-7.89l44.6-44.53c-9.65-6.65-20.35-4.23-31.77,7.18l-25.13,25.07c-2.17,2.16-5.71,2.17-7.88-.01-2.17-2.17-2.17-5.71,0-7.88l25.13-25.07c17.6-17.6,36.49-18.89,51.81-3.57,1.05,1.05,1.63,2.46,1.63,3.95s-.59,2.9-1.63,3.95l-48.89,48.81c-1.07,1.08-2.5,1.63-3.92,1.63h0Z"/>
      <g>
        <path class="cls-1" d="M280.51,216.42c-3.02,0-6.04-.25-9.06-.75-14.42-2.4-27.06-10.28-35.58-22.2s-11.89-26.43-9.51-40.85c1.68-10.07,11.22-16.93,21.32-15.23,10.07,1.67,16.92,11.24,15.23,21.32-.67,4.01.09,8.17,2.1,11.68,1.54,2.67.61,6.07-2.06,7.61-2.64,1.5-6.06.61-7.61-2.06-3.29-5.73-4.5-12.49-3.43-19.05.67-4.02-2.06-7.85-6.07-8.51-4.03-.64-7.83,2.05-8.5,6.07-1.91,11.48.78,23.04,7.58,32.54s16.87,15.79,28.35,17.7c3.15.51,6.35.71,9.47.53,3.13-.07,5.71,2.21,5.85,5.27.17,3.08-2.2,5.69-5.27,5.86-.9.04-1.85.07-2.8.07h0Z"/>
        <path class="cls-1" d="M248.04,291.65c-5.1,0-10.53-.49-16.33-1.56-15.07-2.79-27.36-11.46-34.63-24.44-5-8.93-9.19-22.89-6.37-43.35-2.06.97-4.08,1.57-6.03,2.04-7.72,1.86-18.8-1.39-25.24-7.39-4.88-4.56-7.01-10.48-5.97-16.66.9-5.34,3.53-9.58,7.61-12.29,4.65-3.08,10.23-3.58,14.12-3.34,7.78-20.55,24.19-30.61,42.87-25.84,8.24,2.11,14.93,7.2,19.36,14.72,8.06,13.67,7.34,32.26,3.99,45.09-.77,2.98-3.78,4.75-6.79,3.99-2.99-.78-4.77-3.82-3.98-6.8,2.64-10.19,3.5-25.88-2.82-36.62-2.94-4.98-7.15-8.21-12.53-9.58-14.16-3.64-25.65,4.89-30.93,22.72-.85,2.83-3.71,4.5-6.63,3.84-1.82-.41-7.3-1.01-10.53,1.15-.94.64-2.24,1.82-2.75,4.84-.16.9-.62,3.67,2.57,6.65,4.35,4.05,11.84,5.47,15.03,4.7,3.95-.95,9.19-2.22,14.84-16.27.64-1.83,1.3-3.69,2.04-5.58,1.08-2.83,4.2-4.3,7.09-3.25,2.85,1.03,4.37,4.13,3.41,7.01-.68,1.99-1.35,3.84-2.04,5.57-8.44,24.46-8.65,44.86-.6,59.23,5.62,10.03,15.18,16.75,26.94,18.92,49.48,9.12,68.16-29.49,79.29-52.58,3.78-7.85,6.06-12.57,9.29-14.88.99-.7,2.95-1.77,5.62-3.18,13.26-6.97,44.33-23.29,47.84-53.88,2.95-25.53-15.49-49.76-41.08-54.01-12.12-2.03-24.43.81-34.49,8-10.05,7.19-16.71,17.86-18.73,30.06-.29,2.38-2.12,5.12-4.47,5.58-7.34,1.46-12.88,7.13-14.1,14.43-1.24,7.43,2.44,14.86,9.16,18.48,2.71,1.46,3.72,4.84,2.26,7.54-1.47,2.71-4.83,3.72-7.56,2.27-10.91-5.87-16.89-17.98-14.87-30.12,1.73-10.41,9.16-19.03,19.02-22.48,2.93-14.04,10.95-26.38,22.78-34.83,12.47-8.93,27.67-12.45,42.81-9.94,31.35,5.2,53.93,34.94,50.33,66.28-4.2,36.45-40.19,55.35-53.74,62.47-2.03,1.07-3.54,1.83-4.31,2.36-1.08,1-3.67,6.36-5.75,10.67-9.76,20.26-29.06,60.25-75.02,60.25h0Z"/>
      </g>
    </g>
  </g>
</svg>