<?xml version="1.0" encoding="UTF-8"?>
<svg id="Layer_1" data-name="Layer 1" xmlns="http://www.w3.org/2000/svg" viewBox="0 0 512 512">
  <defs>
    <style>
      .cls-1 {
        fill: #a61a24;
      }

      .cls-2 {
        fill: #f3e2dc;
      }
    </style>
  </defs>
  <rect class="cls-2" width="512" height="512" rx="51" ry="51"/>
  <g id="departments">
    <path class="cls-1" d="M142.97,240.41h-31.18c-2.15,0-3.9-1.74-3.9-3.9v-31.18c0-2.15,1.74-3.9,3.9-3.9h31.18c2.15,0,3.9,1.74,3.9,3.9v31.18c0,2.15-1.74,3.9-3.9,3.9ZM115.69,232.61h23.39v-23.39h-23.39v23.39Z"/>
    <path class="cls-1" d="M193.64,240.41h-31.18c-2.15,0-3.9-1.74-3.9-3.9v-31.18c0-2.15,1.74-3.9,3.9-3.9h31.18c2.15,0,3.9,1.74,3.9,3.9v31.18c0,2.15-1.74,3.9-3.9,3.9ZM166.36,232.61h23.39v-23.39h-23.39v23.39Z"/>
    <path class="cls-1" d="M244.31,240.41h-31.18c-2.15,0-3.9-1.74-3.9-3.9v-31.18c0-2.15,1.74-3.9,3.9-3.9h31.18c2.15,0,3.9,1.74,3.9,3.9v31.18c0,2.15-1.74,3.9-3.9,3.9ZM217.02,232.61h23.39v-23.39h-23.39v23.39Z"/>
    <path class="cls-1" d="M298.87,240.41h-31.18c-2.15,0-3.9-1.74-3.9-3.9v-31.18c0-2.15,1.74-3.9,3.9-3.9h31.18c2.15,0,3.9,1.74,3.9,3.9v31.18c0,2.15-1.74,3.9-3.9,3.9ZM271.59,232.61h23.39v-23.39h-23.39v23.39Z"/>
    <path class="cls-1" d="M349.54,240.41h-31.18c-2.15,0-3.9-1.74-3.9-3.9v-31.18c0-2.15,1.74-3.9,3.9-3.9h31.18c2.15,0,3.9,1.74,3.9,3.9v31.18c0,2.15-1.74,3.9-3.9,3.9ZM322.26,232.61h23.39v-23.39h-23.39v23.39Z"/>
    <path class="cls-1" d="M400.21,240.41h-31.18c-2.15,0-3.9-1.74-3.9-3.9v-31.18c0-2.15,1.74-3.9,3.9-3.9h31.18c2.15,0,3.9,1.74,3.9,3.9v31.18c0,2.15-1.74,3.9-3.9,3.9ZM372.93,232.61h23.39v-23.39h-23.39v23.39Z"/>
    <path class="cls-1" d="M142.97,294.98h-31.18c-2.15,0-3.9-1.74-3.9-3.9v-31.18c0-2.15,1.74-3.9,3.9-3.9h31.18c2.15,0,3.9,1.74,3.9,3.9v31.18c0,2.15-1.74,3.9-3.9,3.9ZM115.69,287.18h23.39v-23.39h-23.39v23.39Z"/>
    <path class="cls-1" d="M193.64,294.98h-31.18c-2.15,0-3.9-1.74-3.9-3.9v-31.18c0-2.15,1.74-3.9,3.9-3.9h31.18c2.15,0,3.9,1.74,3.9,3.9v31.18c0,2.15-1.74,3.9-3.9,3.9ZM166.36,287.18h23.39v-23.39h-23.39v23.39Z"/>
    <path class="cls-1" d="M244.31,294.98h-31.18c-2.15,0-3.9-1.74-3.9-3.9v-31.18c0-2.15,1.74-3.9,3.9-3.9h31.18c2.15,0,3.9,1.74,3.9,3.9v31.18c0,2.15-1.74,3.9-3.9,3.9ZM217.02,287.18h23.39v-23.39h-23.39v23.39Z"/>
    <path class="cls-1" d="M298.87,294.98h-31.18c-2.15,0-3.9-1.74-3.9-3.9v-31.18c0-2.15,1.74-3.9,3.9-3.9h31.18c2.15,0,3.9,1.74,3.9,3.9v31.18c0,2.15-1.74,3.9-3.9,3.9ZM271.59,287.18h23.39v-23.39h-23.39v23.39Z"/>
    <path class="cls-1" d="M349.54,294.98h-31.18c-2.15,0-3.9-1.74-3.9-3.9v-31.18c0-2.15,1.74-3.9,3.9-3.9h31.18c2.15,0,3.9,1.74,3.9,3.9v31.18c0,2.15-1.74,3.9-3.9,3.9ZM322.26,287.18h23.39v-23.39h-23.39v23.39Z"/>
    <path class="cls-1" d="M400.21,294.98h-31.18c-2.15,0-3.9-1.74-3.9-3.9v-31.18c0-2.15,1.74-3.9,3.9-3.9h31.18c2.15,0,3.9,1.74,3.9,3.9v31.18c0,2.15-1.74,3.9-3.9,3.9ZM372.93,287.18h23.39v-23.39h-23.39v23.39Z"/>
    <path class="cls-1" d="M142.97,349.54h-31.18c-2.15,0-3.9-1.74-3.9-3.9v-31.18c0-2.15,1.74-3.9,3.9-3.9h31.18c2.15,0,3.9,1.74,3.9,3.9v31.18c0,2.15-1.74,3.9-3.9,3.9ZM115.69,341.75h23.39v-23.39h-23.39v23.39Z"/>
    <path class="cls-1" d="M193.64,349.54h-31.18c-2.15,0-3.9-1.74-3.9-3.9v-31.18c0-2.15,1.74-3.9,3.9-3.9h31.18c2.15,0,3.9,1.74,3.9,3.9v31.18c0,2.15-1.74,3.9-3.9,3.9ZM166.36,341.75h23.39v-23.39h-23.39v23.39Z"/>
    <path class="cls-1" d="M349.54,349.54h-31.18c-2.15,0-3.9-1.74-3.9-3.9v-31.18c0-2.15,1.74-3.9,3.9-3.9h31.18c2.15,0,3.9,1.74,3.9,3.9v31.18c0,2.15-1.74,3.9-3.9,3.9ZM322.26,341.75h23.39v-23.39h-23.39v23.39Z"/>
    <path class="cls-1" d="M400.21,349.54h-31.18c-2.15,0-3.9-1.74-3.9-3.9v-31.18c0-2.15,1.74-3.9,3.9-3.9h31.18c2.15,0,3.9,1.74,3.9,3.9v31.18c0,2.15-1.74,3.9-3.9,3.9ZM372.93,341.75h23.39v-23.39h-23.39v23.39Z"/>
    <path class="cls-1" d="M142.97,404.11h-31.18c-2.15,0-3.9-1.74-3.9-3.9v-31.18c0-2.15,1.74-3.9,3.9-3.9h31.18c2.15,0,3.9,1.74,3.9,3.9v31.18c0,2.15-1.74,3.9-3.9,3.9ZM115.69,396.31h23.39v-23.39h-23.39v23.39Z"/>
    <path class="cls-1" d="M193.64,404.11h-31.18c-2.15,0-3.9-1.74-3.9-3.9v-31.18c0-2.15,1.74-3.9,3.9-3.9h31.18c2.15,0,3.9,1.74,3.9,3.9v31.18c0,2.15-1.74,3.9-3.9,3.9ZM166.36,396.31h23.39v-23.39h-23.39v23.39Z"/>
    <path class="cls-1" d="M349.54,404.11h-31.18c-2.15,0-3.9-1.74-3.9-3.9v-31.18c0-2.15,1.74-3.9,3.9-3.9h31.18c2.15,0,3.9,1.74,3.9,3.9v31.18c0,2.15-1.74,3.9-3.9,3.9ZM322.26,396.31h23.39v-23.39h-23.39v23.39Z"/>
    <path class="cls-1" d="M400.21,404.11h-31.18c-2.15,0-3.9-1.74-3.9-3.9v-31.18c0-2.15,1.74-3.9,3.9-3.9h31.18c2.15,0,3.9,1.74,3.9,3.9v31.18c0,2.15-1.74,3.9-3.9,3.9ZM372.93,396.31h23.39v-23.39h-23.39v23.39Z"/>
    <path class="cls-1" d="M419.7,135.18h-109.13v-46.77c0-2.15-1.74-3.9-3.9-3.9h-101.34c-2.15,0-3.9,1.74-3.9,3.9v46.77h-109.13c-2.15,0-3.9,1.74-3.9,3.9v284.52c0,2.15,1.74,3.9,3.9,3.9h327.39c2.15,0,3.9-1.74,3.9-3.9V139.07c0-2.15-1.74-3.9-3.9-3.9ZM209.23,92.3h93.54v85.75h-93.54v-85.75ZM220.92,419.7v-101.34h66.26v101.34h-66.26ZM415.8,419.7h-120.82v-105.23c0-2.15-1.74-3.9-3.9-3.9h-74.05c-2.15,0-3.9,1.74-3.9,3.9v105.23h-116.93V142.97h105.23v38.98c0,2.15,1.74,3.9,3.9,3.9h101.34c2.15,0,3.9-1.74,3.9-3.9v-38.98h105.23v276.73Z"/>
    <path class="cls-1" d="M267.69,170.25h-23.39c-2.15,0-3.9-1.74-3.9-3.9v-15.59h-15.59c-2.15,0-3.9-1.74-3.9-3.9v-23.39c0-2.15,1.74-3.9,3.9-3.9h15.59v-15.59c0-2.15,1.74-3.9,3.9-3.9h23.39c2.15,0,3.9,1.74,3.9,3.9v15.59h15.59c2.15,0,3.9,1.74,3.9,3.9v23.39c0,2.15-1.74,3.9-3.9,3.9h-15.59v15.59c0,2.15-1.74,3.9-3.9,3.9ZM248.2,162.46h15.59v-15.59c0-2.15,1.74-3.9,3.9-3.9h15.59v-15.59h-15.59c-2.15,0-3.9-1.74-3.9-3.9v-15.59h-15.59v15.59c0,2.15-1.74,3.9-3.9,3.9h-15.59v15.59h15.59c2.15,0,3.9,1.74,3.9,3.9v15.59Z"/>
  </g>
</svg>